<?xml version="1.0" encoding="UTF-8"?>
<svg id="Layer_1" xmlns="http://www.w3.org/2000/svg" viewBox="0 0 918.34 530.15">
  <defs>
    <style>
      .cls-1 {
        fill: #fff;
      }

      .cls-2 {
        fill: #4db5bd;
      }
    </style>
  </defs>
  <g>
    <path class="cls-2" d="M287.02,36v14.23h-63.7v-14.23h63.7Z"/>
    <path class="cls-2" d="M320.62,20.92c3.74-6.55,8.84-11.65,15.31-15.31,6.47-3.66,13.73-5.49,21.77-5.49,9.41,0,17.65,2.41,24.73,7.24,7.07,4.82,12.02,11.5,14.83,20.02h-19.41c-1.93-4.02-4.64-7.03-8.14-9.04-3.49-2.01-7.53-3.01-12.12-3.01-4.9,0-9.27,1.15-13.09,3.44-3.82,2.29-6.79,5.53-8.92,9.71-2.13,4.18-3.19,9.09-3.19,14.71s1.06,10.43,3.19,14.65c2.13,4.22,5.1,7.48,8.92,9.77,3.82,2.29,8.18,3.44,13.09,3.44,4.58,0,8.62-1.02,12.12-3.07,3.5-2.05,6.21-5.09,8.14-9.11h19.41c-2.81,8.6-7.74,15.3-14.77,20.08-7.04,4.78-15.3,7.18-24.79,7.18-8.04,0-15.29-1.83-21.77-5.49-6.47-3.66-11.58-8.74-15.31-15.26-3.74-6.51-5.61-13.91-5.61-22.19s1.87-15.7,5.61-22.25Z"/>
    <path class="cls-2" d="M433.46,80.68c-6.6-3.7-11.82-8.82-15.68-15.38-3.86-6.55-5.79-13.97-5.79-22.25s1.93-15.58,5.79-22.13c3.86-6.55,9.09-11.68,15.68-15.38,6.59-3.7,13.83-5.55,21.71-5.55s15.21,1.85,21.77,5.55c6.55,3.7,11.74,8.83,15.56,15.38,3.82,6.55,5.73,13.93,5.73,22.13s-1.91,15.7-5.73,22.25c-3.82,6.55-9.02,11.68-15.62,15.38-6.59,3.7-13.83,5.55-21.71,5.55s-15.12-1.85-21.71-5.55ZM468.55,67.71c3.86-2.29,6.87-5.57,9.04-9.83,2.17-4.26,3.26-9.21,3.26-14.83s-1.08-10.55-3.26-14.77c-2.17-4.22-5.18-7.46-9.04-9.71-3.86-2.25-8.32-3.38-13.39-3.38s-9.55,1.13-13.45,3.38c-3.9,2.25-6.94,5.49-9.11,9.71-2.17,4.22-3.25,9.15-3.25,14.77s1.08,10.57,3.25,14.83c2.17,4.26,5.2,7.54,9.11,9.83,3.9,2.29,8.38,3.44,13.45,3.44s9.53-1.15,13.39-3.44Z"/>
    <path class="cls-2" d="M592.65,85.38h-16.89l-38.23-57.77v57.77h-16.88V1.08h16.88l38.23,57.88V1.08h16.89v84.3Z"/>
    <path class="cls-2" d="M632.21,83.21c-4.71-2.01-8.42-4.9-11.16-8.68-2.73-3.78-4.14-8.24-4.22-13.39h18.09c.24,3.46,1.46,6.19,3.68,8.2,2.21,2.01,5.25,3.01,9.11,3.01s7.03-.94,9.28-2.83c2.25-1.89,3.38-4.36,3.38-7.42,0-2.49-.76-4.54-2.29-6.15-1.53-1.61-3.44-2.87-5.73-3.8-2.29-.92-5.44-1.95-9.47-3.08-5.46-1.61-9.91-3.2-13.32-4.76-3.42-1.57-6.35-3.94-8.81-7.11-2.45-3.18-3.68-7.42-3.68-12.72,0-4.99,1.25-9.33,3.74-13.02,2.49-3.7,5.99-6.53,10.49-8.5,4.5-1.97,9.65-2.95,15.44-2.95,8.68,0,15.74,2.11,21.17,6.33,5.43,4.22,8.42,10.11,8.98,17.67h-18.57c-.16-2.89-1.39-5.29-3.68-7.18-2.29-1.89-5.33-2.83-9.11-2.83-3.3,0-5.93.85-7.9,2.53-1.97,1.69-2.95,4.14-2.95,7.36,0,2.25.74,4.12,2.23,5.61,1.49,1.49,3.34,2.69,5.55,3.62,2.21.92,5.32,1.99,9.35,3.2,5.46,1.61,9.93,3.22,13.38,4.82,3.46,1.61,6.43,4.02,8.92,7.24,2.5,3.22,3.74,7.44,3.74,12.66,0,4.5-1.17,8.68-3.5,12.54-2.33,3.86-5.75,6.93-10.25,9.23-4.5,2.29-9.85,3.44-16.04,3.44s-11.16-1.01-15.86-3.01Z"/>
    <path class="cls-2" d="M717.81,1.2v52.1c0,5.71,1.49,10.07,4.46,13.09,2.97,3.01,7.16,4.52,12.54,4.52s9.69-1.51,12.66-4.52c2.97-3.01,4.46-7.37,4.46-13.09V1.2h17v51.98c0,7.16-1.55,13.21-4.64,18.15-3.1,4.94-7.24,8.66-12.42,11.15-5.18,2.49-10.95,3.74-17.31,3.74s-11.96-1.25-17.07-3.74c-5.1-2.49-9.14-6.21-12.12-11.15-2.98-4.95-4.46-10.99-4.46-18.15V1.2h16.88Z"/>
    <path class="cls-2" d="M812.23,71.99h27.74v13.39h-44.62V1.2h16.88v70.79Z"/>
    <path class="cls-2" d="M906.88,1.2v13.63h-22.43v70.55h-16.88V14.83h-22.43V1.2h61.75Z"/>
  </g>
  <g>
    <path class="cls-1" d="M359.36,354.53c0,12.74-3.04,22.75-9.1,30.03-6.07,7.28-14.87,10.92-26.39,10.92s-20.86-3.79-27.07-11.37c-6.22-7.58-9.48-18.2-9.78-31.85v-48.32h-63.7v48.32c0,31.54,9.32,56.12,27.98,73.7,18.66,17.6,43.15,26.39,73.48,26.39s53.98-8.57,71.89-25.7c17.89-17.13,26.84-41.18,26.84-72.11v-222.93h-64.15v222.93Z"/>
    <polygon class="cls-1" points="550.9 131.59 487.2 131.59 487.2 449.16 658.87 449.16 658.87 398.66 550.9 398.66 550.9 131.59"/>
    <path class="cls-1" d="M905.37,179.36c-8.64-14.86-21.61-26.54-38.9-35.03-17.29-8.49-38.22-12.74-62.79-12.74h-116.93v317.57h63.7v-121.93h53.23c26.09,0,47.69-4.55,64.84-13.65,17.13-9.1,29.72-21.08,37.76-35.95,8.03-14.86,12.05-30.78,12.05-47.77,0-18.8-4.32-35.63-12.97-50.5ZM840.08,263.76c-8.49,8.04-21.54,12.05-39.13,12.05h-50.5v-92.36h50.5c34.58,0,51.87,15.47,51.87,46.41,0,14.56-4.25,25.86-12.74,33.9Z"/>
  </g>
  <polygon class="cls-2" points="0 214.28 0 280.88 119.44 343.04 0 405.2 0 471.8 172.28 382.15 172.28 370.53 172.28 315.55 172.28 303.93 0 214.28"/>
  <rect class="cls-2" x="223.33" y="479.65" width="684.57" height="50.5"/>
</svg>